<?xml version="1.0" standalone="no"?>
<!DOCTYPE svg PUBLIC "-//W3C//DTD SVG 20010904//EN"
 "http://www.w3.org/TR/2001/REC-SVG-20010904/DTD/svg10.dtd">
<svg version="1.0" xmlns="http://www.w3.org/2000/svg"
 width="844.000000pt" height="356.000000pt" viewBox="0 0 844.000000 356.000000"
 preserveAspectRatio="xMidYMid meet">

<g transform="translate(0.000000,356.000000) scale(0.100000,-0.100000)"
fill="#000000" stroke="none">
<path d="M2932 2312 l-72 -17 -3 -493 -2 -493 79 3 c78 3 85 6 102 46 1 2 18
-8 38 -22 43 -29 109 -41 167 -32 170 27 280 226 249 446 -26 184 -126 283
-285 284 -54 0 -80 -5 -112 -22 l-43 -22 0 170 c0 196 12 181 -118 152z m303
-456 c35 -35 48 -97 43 -211 -5 -105 -21 -155 -57 -175 -34 -18 -106 -12 -135
11 l-26 20 0 169 0 168 33 21 c46 29 111 28 142 -3z"/>
<path d="M3583 2310 c-40 -24 -53 -48 -53 -100 0 -76 73 -124 151 -101 27 8
46 23 59 44 65 106 -51 222 -157 157z"/>
<path d="M3880 2311 l-75 -17 3 -429 c3 -419 4 -431 25 -475 32 -66 88 -92
184 -88 40 2 77 8 83 14 7 7 5 26 -5 62 -13 43 -20 52 -38 52 -47 0 -47 4 -47
380 0 195 -3 392 -7 438 -7 95 0 91 -123 63z"/>
<path d="M5262 2314 c-83 -42 -80 -159 4 -199 43 -20 73 -19 112 5 126 77 16
261 -116 194z"/>
<path d="M6193 2310 c-40 -24 -53 -48 -53 -100 0 -76 73 -124 151 -101 91 27
107 152 27 201 -42 25 -84 25 -125 0z"/>
<path d="M7180 2312 l-75 -17 3 -430 c2 -247 8 -444 13 -462 12 -39 55 -77
105 -93 39 -13 160 -9 174 6 4 5 1 33 -8 62 -12 43 -18 52 -37 52 -49 0 -50 4
-55 464 -6 496 9 446 -120 418z"/>
<path d="M4899 2208 l-76 -20 -7 -51 c-3 -29 -6 -67 -6 -84 0 -31 -2 -33 -35
-33 l-35 0 0 -65 0 -65 35 0 35 0 0 -228 c0 -216 1 -230 23 -272 33 -65 78
-85 192 -85 52 0 103 6 121 13 l32 13 -12 52 -12 52 -46 -3 c-102 -8 -108 6
-108 264 l0 194 60 0 61 0 18 43 c40 93 44 87 -55 87 l-87 0 7 105 c8 122 17
115 -105 83z"/>
<path d="M846 2142 c-31 -38 -56 -74 -56 -79 0 -6 7 -17 17 -24 9 -8 24 -32
34 -54 51 -110 -8 -225 -135 -265 -30 -10 -51 -10 -92 -1 -30 7 -56 17 -59 22
-4 5 -12 9 -19 9 -18 0 -129 -137 -121 -150 10 -16 166 -130 207 -151 l39 -20
20 25 c40 51 129 25 129 -36 0 -14 8 -18 33 -18 31 0 1083 117 1100 123 4 1
-143 95 -327 209 -330 205 -335 208 -379 202 -40 -6 -46 -4 -66 22 -14 18 -21
37 -18 52 4 20 -13 36 -110 110 -63 48 -120 88 -128 90 -7 2 -38 -28 -69 -66z
m309 -237 c14 -13 25 -33 25 -45 0 -25 -42 -70 -65 -70 -20 0 -57 19 -67 34
-17 24 -8 65 18 85 35 27 59 26 89 -4z m-112 -156 c32 -44 1 -99 -56 -99 -38
0 -50 7 -66 37 -13 26 -1 66 26 82 30 18 74 8 96 -20z m-138 -144 c14 -13 25
-33 25 -45 0 -25 -42 -70 -65 -70 -20 0 -57 19 -67 34 -17 24 -8 65 18 85 35
27 59 26 89 -4z"/>
<path d="M3685 2030 c-22 -4 -61 -11 -87 -14 l-48 -7 0 -350 0 -350 93 3 92 3
3 363 c1 199 -1 362 -5 361 -5 -1 -26 -5 -48 -9z"/>
<path d="M5312 2023 l-92 -15 2 -347 3 -346 93 -3 92 -3 0 366 c0 201 -1 365
-2 364 -2 -1 -45 -8 -96 -16z"/>
<path d="M5645 2034 c-5 -1 -43 -12 -83 -24 -62 -18 -72 -24 -65 -38 4 -9 10
-161 13 -337 l5 -320 95 0 95 0 3 253 2 253 33 19 c58 36 103 45 131 26 l26
-16 2 -268 3 -267 93 -3 93 -3 -3 310 c-3 294 -4 311 -24 338 -58 80 -199 96
-308 35 -31 -18 -60 -32 -65 -32 -5 0 -12 16 -15 35 -7 36 -14 44 -31 39z"/>
<path d="M6248 2022 l-88 -15 0 -349 0 -349 93 3 92 3 3 363 c1 199 -1 361 -5
361 -5 -1 -47 -8 -95 -17z"/>
<path d="M4300 2021 c-72 -22 -154 -99 -185 -175 -39 -93 -37 -268 4 -360 45
-103 141 -170 263 -186 102 -12 190 7 280 62 l47 29 -36 55 c-20 30 -37 54
-38 54 -1 0 -23 -11 -47 -25 -145 -81 -271 -41 -293 93 l-7 42 216 0 216 0 0
23 c0 12 -4 59 -10 105 -16 140 -66 221 -165 268 -41 20 -65 24 -135 23 -47 0
-96 -4 -110 -8z m154 -131 c33 -12 53 -45 62 -97 l7 -43 -112 0 -111 0 0 33
c0 83 77 137 154 107z"/>
<path d="M6573 2001 c-45 -15 -95 -37 -112 -47 l-29 -19 39 -66 40 -66 65 35
c48 25 83 36 128 39 80 6 97 -6 104 -75 l5 -52 -75 0 c-142 0 -249 -45 -296
-125 -20 -35 -22 -51 -20 -126 3 -77 6 -90 32 -124 18 -23 50 -47 84 -63 49
-22 64 -24 139 -19 72 4 92 9 135 36 49 31 51 31 64 12 12 -17 74 -61 86 -61
2 0 26 25 52 55 l48 56 -31 35 -31 35 0 202 c0 111 -5 218 -10 239 -13 45 -75
103 -127 117 -21 6 -76 11 -123 11 -68 0 -102 -6 -167 -29z m237 -447 c0 -36
-4 -73 -10 -83 -13 -25 -85 -53 -116 -45 -32 8 -64 50 -64 85 0 74 43 108 138
109 l52 0 0 -66z"/>
<path d="M1850 1875 c-135 -19 -256 -35 -270 -37 -20 -2 9 -25 150 -115 159
-102 176 -110 192 -96 28 25 53 13 53 -26 0 -31 6 -38 83 -87 45 -30 86 -54
90 -54 4 0 22 19 40 42 31 41 32 42 13 62 -62 69 -8 176 89 176 17 0 40 -4 50
-10 15 -8 24 -3 49 29 17 21 31 41 31 44 0 3 -25 24 -55 45 -63 45 -140 71
-158 53 -14 -14 -57 -15 -57 -1 0 14 -25 12 -300 -25z m294 -11 c12 -12 13
-20 6 -35 -12 -21 -40 -25 -58 -7 -16 16 -15 23 4 42 19 20 29 20 48 0z m-58
-78 c15 -12 17 -18 8 -33 -17 -27 -58 -24 -62 6 -2 13 2 28 10 32 18 12 21 11
44 -5z m-53 -88 c13 -20 -6 -48 -34 -48 -22 0 -35 36 -18 56 15 18 38 15 52
-8z"/>
</g>
</svg>
